<svg height="104" viewBox="0 0 136 104" width="136" xmlns="http://www.w3.org/2000/svg"><g fill="none" fill-rule="evenodd"><path d="m8.26227388 34.4901268c-4.60790953-5.4087509-7.72663909-12.0372497-7.20549755-19.4646729 1.50155389-21.40047447 31.29175427-16.69264276 37.08656507-5.89152098 5.7948107 10.80112178 5.1062366 38.19906288-2.38304 40.12952468-2.9867132.7698654-9.3493002-1.1159967-15.8249294-5.0191516l4.064628 28.755694h-24z" fill="#b28b67" transform="translate(54 31)"/><path d="m70.5687217 63.9853286c-2.9760981 5.7126493-7.092213 10.0146714-11.2043834 10.0146714-7.8107156 0-13.3643383-10.4427205-13.3643383-21.6704313 0-.3944831.0078163-.7863419.0232386-1.1752738-8.2623441 5.6698108-14.6300309 16.8457051-25.5624931 16.8457051-14.87351634 0-20.78040975-30 0-30 14.1322575 0 21.0838307 2.0604811 27.0747286 5.1074469 1.1816-3.331111 2.9833452-6.1317582 5.1865218-8.0875457.5300212-.596647 1.342603-1.1674986 2.390924-1.696707.6409022-.3506512 1.3041224-.6362426 1.9857551-.8511603 3.6130299-1.3277468 8.8462793-2.2642443 14.691928-2.4683789 1.0915692-.0381184 2.1636181-.0492729 3.2094458-.0352212.0170208-5.5083309 4.4876296-9.9684338 9.9999512-9.9684338 5.5228475 0 10 4.4771525 10 10 0 5.3410915-4.1873168 9.7041827-9.4582519 9.9855753-3.01524.9303776-6.8892844 1.6134795-11.18556 1.90154.4171246 1.568639.6438119 3.350672.6438119 5.3644469 0 1.7781427-.1962602 3.6639601-.5576421 5.5787488-.931811-1.1075594-2.1777547-1.830311-3.4423579-1.830311-3.5375661 0-6 2.9101491-6 6 0 3.9215044 2.2638886 6.7584261 5.5687217 6.9853286z" fill="#191847"/></g></svg>